<?xml version="1.0" encoding="UTF-8" standalone="no"?>
<svg
   xmlns:dc="http://purl.org/dc/elements/1.1/"
   xmlns:cc="http://creativecommons.org/ns#"
   xmlns:rdf="http://www.w3.org/1999/02/22-rdf-syntax-ns#"
   xmlns:svg="http://www.w3.org/2000/svg"
   xmlns="http://www.w3.org/2000/svg"
   viewBox="0 0 1889.76 463.84134"
   height="463.84134"
   width="1889.76"
   xml:space="preserve"
   id="svg2"
   version="1.1"><metadata
     id="metadata8"><rdf:RDF><cc:Work
         rdf:about=""><dc:format>image/svg+xml</dc:format><dc:type
           rdf:resource="http://purl.org/dc/dcmitype/StillImage" /></cc:Work></rdf:RDF></metadata><defs
     id="defs6"><clipPath
       id="clipPath18"
       clipPathUnits="userSpaceOnUse"><path
         id="path16"
         d="M 0,347.881 H 1417.323 V 0 H 0 Z" /></clipPath></defs><g
     transform="matrix(1.3333333,0,0,-1.3333333,0,463.84133)"
     id="g10"><g
       id="g12"><g
         clip-path="url(#clipPath18)"
         id="g14"><g
           transform="translate(241.5684,209.3039)"
           id="g20"><path
             id="path22"
             style="fill:#0c4da2;fill-opacity:1;fill-rule:nonzero;stroke:none"
             d="m 0,0 54.631,-24.833 c 0,0 -117.54,-27.315 -242.53,-141.544 0,0 86.914,134.922 187.899,166.377" /></g><g
           transform="translate(83.4683,185.299)"
           id="g24"><path
             id="path26"
             style="fill:#ed1c24;fill-opacity:1;fill-rule:nonzero;stroke:none"
             d="m 0,0 c 0,0 74.498,62.081 244.186,67.875 0,0 -131.612,-26.487 -203.626,-96.846 z" /></g><g
           transform="translate(318.0288,132.5544)"
           id="g28"><path
             id="path30"
             style="fill:#ed1c24;fill-opacity:1;fill-rule:nonzero;stroke:none"
             d="m 0,0 h 30.794 c -0.549,-6.041 1.079,-10.569 4.884,-13.587 4.102,-3.019 9.927,-4.528 17.477,-4.528 5.433,0 10.262,1.054 14.487,3.171 3.918,2.108 6.133,4.982 6.641,8.606 C 75.048,-0.904 69.28,3.17 56.984,5.887 51.673,6.795 47.725,7.699 45.138,8.607 29.681,12.524 19.627,17.211 14.958,22.644 9.679,28.077 7.683,35.322 8.956,44.38 c 1.61,11.471 7.32,20.978 17.142,28.528 10.03,6.941 22.296,10.415 36.786,10.415 15.696,0 27.74,-3.474 36.125,-10.415 7.689,-7.55 10.989,-17.365 9.901,-29.436 H 89.436 c -5.74,0 -9.761,2.563 -12.054,7.699 -1.037,1.205 -2.078,2.413 -3.109,3.625 -3.242,2.716 -8.03,4.075 -14.371,4.075 -6.048,0 -10.703,-0.908 -13.969,-2.717 -2.973,-1.812 -4.713,-4.529 -5.222,-8.153 -0.679,-4.833 6.594,-8.907 21.829,-12.229 1.727,-0.607 3.249,-1.06 4.563,-1.357 1.317,-0.305 2.576,-0.451 3.788,-0.451 14.846,-3.928 24.923,-8.453 30.244,-13.583 4.969,-5.437 6.819,-12.682 5.546,-21.739 -1.867,-13.287 -8.139,-23.549 -18.818,-30.794 -9.989,-6.645 -24.04,-9.962 -42.155,-9.962 -17.211,0 -29.559,3.468 -37.029,10.416 -7.784,6.941 -10.737,17.053 -8.87,30.34 z" /></g><g
           transform="translate(534.3257,92.7028)"
           id="g32"><path
             id="path34"
             style="fill:#ed1c24;fill-opacity:1;fill-rule:nonzero;stroke:none"
             d="m 0,0 8.211,58.421 c 1.655,11.773 4.778,21.657 9.375,29.657 4.594,7.996 10.249,14.416 16.972,19.248 6.365,4.529 13.556,7.846 21.552,9.962 7.993,2.109 16.071,3.17 24.221,3.17 h 2.262 2.266 L 80.341,88.307 H 69.925 c -8.761,0 -15.546,-2.117 -20.364,-6.342 -4.83,-4.232 -7.87,-10.866 -9.143,-19.924 L 31.698,0 Z" /></g><g
           transform="translate(683.6938,153.3864)"
           id="g36"><path
             id="path38"
             style="fill:#ed1c24;fill-opacity:1;fill-rule:nonzero;stroke:none"
             d="M 0,0 C -4.529,-2.116 -10.692,-4.075 -18.487,-5.888 L -29.224,-8.15 c -5.648,-1.515 -9.849,-3.474 -12.6,-5.887 -2.583,-3.328 -4.106,-6.645 -4.57,-9.966 -0.638,-4.525 0.212,-8.149 2.546,-10.866 2.379,-2.42 6.13,-3.624 11.266,-3.624 8.45,0 15.433,2.412 20.944,7.245 5.505,4.826 8.86,11.471 10.048,19.928 z m -0.583,-55.701 c -6.809,-3.327 -13.815,-5.358 -21.01,-6.115 -7.204,-0.747 -13.518,-1.13 -18.954,-1.13 -10.867,0 -19.965,2.942 -27.286,8.829 -7.327,5.887 -10.034,15.624 -8.126,29.21 1.785,12.682 6.751,21.736 14.914,27.173 8.157,5.433 18.098,9.057 29.832,10.866 1.508,0 3.351,0.225 5.528,0.68 2.174,0.45 4.645,0.825 7.406,1.128 13.535,1.813 20.733,5.734 21.579,11.775 0.638,4.529 -1.29,7.474 -5.778,8.832 -4.491,1.359 -8.699,2.038 -12.617,2.038 -4.232,0 -8.088,-0.607 -11.579,-1.813 -3.492,-1.208 -6.225,-3.474 -8.201,-6.791 h -30.34 c 2.518,9.354 7.832,17.054 15.927,23.095 9.129,6.941 21.235,10.415 36.333,10.415 16.907,0 29.18,-2.87 36.831,-8.603 7.901,-6.041 11.095,-14.491 9.57,-25.361 L 27.654,-12.679 C 25.958,-24.757 22.436,-34.189 17.108,-40.984 11.774,-47.776 5.874,-52.688 -0.583,-55.701" /></g><g
           transform="translate(834.8809,213.1613)"
           id="g40"><path
             id="path42"
             style="fill:#0c4da2;fill-opacity:1;fill-rule:nonzero;stroke:none"
             d="M 0,0 -6.238,-44.38 38.493,0 H 76.536 L 27.02,-46.192 60.056,-120.458 H 22.017 L 5.557,-79.7 c -3.386,8.151 -6.823,11.617 -10.311,10.416 -3.495,-1.211 -5.409,-3.023 -5.747,-5.436 l -2.354,-16.753 -4.076,-28.985 h -31.698 l 21.894,155.78 h 16.302 c 4.225,0 7.635,-1.511 10.236,-4.525 2.587,-3.024 3.61,-6.498 3.06,-10.416 z" /></g><g
           transform="translate(968.1543,153.3864)"
           id="g44"><path
             id="path46"
             style="fill:#0c4da2;fill-opacity:1;fill-rule:nonzero;stroke:none"
             d="M 0,0 C -4.528,-2.116 -10.692,-4.075 -18.487,-5.888 L -29.221,-8.15 c -5.651,-1.515 -9.852,-3.474 -12.603,-5.887 -2.583,-3.328 -4.106,-6.645 -4.57,-9.966 -0.637,-4.525 0.212,-8.149 2.546,-10.866 2.375,-2.42 6.13,-3.624 11.266,-3.624 8.45,0 15.433,2.412 20.944,7.245 5.505,4.826 8.86,11.471 10.048,19.928 z m -0.583,-55.701 c -6.809,-3.327 -13.815,-5.358 -21.013,-6.115 -7.201,-0.747 -13.514,-1.13 -18.951,-1.13 -10.867,0 -19.966,2.942 -27.286,8.829 -7.327,5.887 -10.033,15.624 -8.122,29.21 1.781,12.682 6.747,21.736 14.91,27.173 8.157,5.433 18.099,9.057 29.832,10.866 1.508,0 3.351,0.225 5.528,0.68 2.171,0.45 4.645,0.825 7.407,1.128 13.535,1.813 20.728,5.734 21.579,11.775 0.637,4.529 -1.29,7.474 -5.779,8.832 -4.491,1.359 -8.699,2.038 -12.617,2.038 -4.231,0 -8.088,-0.607 -11.579,-1.813 -3.495,-1.208 -6.225,-3.474 -8.198,-6.791 h -30.34 c 2.516,9.354 7.829,17.054 15.925,23.095 9.125,6.941 21.234,10.415 36.332,10.415 16.907,0 29.18,-2.87 36.831,-8.603 7.9,-6.041 11.099,-14.491 9.569,-25.361 L 27.654,-12.679 C 25.958,-24.757 22.436,-34.189 17.108,-40.984 11.774,-47.776 5.877,-52.688 -0.583,-55.701" /></g><g
           transform="translate(993.5898,92.7028)"
           id="g48"><path
             id="path50"
             style="fill:#0c4da2;fill-opacity:1;fill-rule:nonzero;stroke:none"
             d="m 0,0 8.212,58.421 c 1.654,11.773 4.777,21.657 9.375,29.657 4.593,7.996 10.248,14.416 16.972,19.248 6.364,4.529 13.555,7.846 21.551,9.962 7.993,2.109 16.071,3.17 24.221,3.17 h 2.263 2.265 L 80.341,88.307 H 69.925 c -8.761,0 -15.549,-2.117 -20.367,-6.342 -4.827,-4.232 -7.867,-10.866 -9.14,-19.924 L 31.698,0 Z" /></g><g
           transform="translate(1101.1035,152.028)"
           id="g52"><path
             id="path54"
             style="fill:#0c4da2;fill-opacity:1;fill-rule:nonzero;stroke:none"
             d="m 0,0 c -2.928,-20.832 1.488,-32.381 13.249,-34.644 11.75,-2.262 21.05,0.526 27.896,8.378 3.18,3.318 5.874,8.526 8.082,15.624 2.197,7.089 3.262,14.109 3.183,21.058 -0.085,6.938 -1.706,13.128 -4.863,18.565 -3.163,5.434 -8.522,8.15 -16.064,8.15 -10.265,0 -17.736,-3.778 -22.421,-11.32 C 4.379,18.262 1.358,9.654 0,0 m 44.305,-52.08 1.086,7.699 c -6.624,-8.456 -14.689,-13.739 -24.194,-15.848 -9.508,-2.11 -18.531,-1.359 -27.081,2.262 -8.545,3.624 -15.378,10.337 -20.486,20.153 -5.12,9.808 -6.546,22.715 -4.297,38.721 2.631,18.713 9.064,33.883 19.306,45.51 10.235,11.617 24.866,17.433 43.885,17.433 14.491,0 27.368,-3.925 38.65,-11.774 C 82.443,44.223 86.597,29.732 83.628,8.604 L 74.655,-55.25 c -2.968,-21.129 -11.187,-35.548 -24.643,-43.247 -13.467,-7.699 -27.44,-11.549 -41.93,-11.549 -27.78,0 -43.162,12.985 -46.151,38.946 H -5.01 c 1.82,-4.224 5.065,-7.47 9.727,-9.736 4.662,-2.263 9.559,-2.867 14.688,-1.812 5.13,1.061 10.074,4.006 14.825,8.833 4.754,4.832 8.113,12.077 10.075,21.735" /></g><g
           transform="translate(1230.0293,183.2722)"
           id="g56"><path
             id="path58"
             style="fill:#0c4da2;fill-opacity:1;fill-rule:nonzero;stroke:none"
             d="m 0,0 c -7.317,-6.949 -11.642,-17.286 -12.966,-31.016 -1.327,-13.743 -0.105,-23.323 3.659,-28.759 1.474,-2.42 4.355,-4.457 8.648,-6.113 4.297,-1.662 8.877,-1.812 13.751,-0.454 4.87,1.359 9.501,4.758 13.887,10.191 4.384,5.433 7.576,14.187 9.576,26.265 1.528,10.869 0.931,19.019 -1.769,24.452 C 32.077,0 28.565,3.467 24.248,4.982 19.931,6.491 15.412,6.566 10.692,5.208 5.973,3.85 2.406,2.109 0,0 m -32.938,-79.699 c -5.576,5.432 -9.078,12.75 -10.5,21.965 -1.423,9.204 -1.434,18.791 -0.031,28.755 1.143,8.151 3.423,16.3 6.829,24.45 3.412,8.153 7.911,14.945 13.508,20.381 9.122,9.058 19.982,14.413 32.603,16.075 12.606,1.658 23.643,0.678 33.093,-2.942 C 53.4,24.456 60.751,16.6 64.618,5.437 c 3.727,-9.966 4.665,-21.59 2.798,-34.87 -1.358,-9.665 -3.587,-17.964 -6.672,-24.906 C 57.652,-61.287 54.11,-67.175 50.11,-72 41.462,-81.966 31.381,-88.156 19.876,-90.569 c -10.344,-2.717 -20.415,-2.942 -30.21,-0.679 -9.802,2.266 -17.334,6.112 -22.604,11.549" /></g><g
           transform="translate(511.0928,185.1472)"
           id="g60"><path
             id="path62"
             style="fill:#ed1c24;fill-opacity:1;fill-rule:nonzero;stroke:none"
             d="m 0,0 -6.882,-48.969 c -1.02,-7.245 -3.958,-12.531 -8.794,-15.848 -4.846,-3.329 -9.983,-4.983 -15.42,-4.983 -5.433,0 -10.033,1.654 -13.791,4.983 -3.767,3.317 -5.133,8.603 -4.115,15.848 L -42.119,0 h -31.697 l -5.991,-42.628 c -2.928,-20.831 0.499,-34.575 10.286,-41.213 9.778,-6.644 21.119,-10.259 34.02,-10.866 13.282,0 25.974,3.317 38.08,9.962 12.101,6.638 19.664,20.675 22.678,42.117 L 31.248,0 Z" /></g><g
           transform="translate(543.3906,192.6208)"
           id="g64"><path
             id="path66"
             style="fill:#ed1c24;fill-opacity:1;fill-rule:nonzero;stroke:none"
             d="m 0,0 2.887,20.541 h -15.853 c -4.525,0 -8.443,-1.512 -11.73,-4.529 -3.296,-3.021 -5.235,-6.645 -5.829,-10.866 L -31.248,0 Z" /></g><g
           transform="translate(470.0249,192.6208)"
           id="g68"><path
             id="path70"
             style="fill:#ed1c24;fill-opacity:1;fill-rule:nonzero;stroke:none"
             d="m 0,0 2.887,20.541 h -18.781 c -7.407,0 -13.684,-5.457 -14.714,-12.792 L -31.698,0 Z" /></g><g
           transform="translate(767.1299,212.9328)"
           id="g72"><path
             id="path74"
             style="fill:#ed1c24;fill-opacity:1;fill-rule:nonzero;stroke:none"
             d="m 0,0 2.516,20.424 c 0.521,4.235 -0.544,7.838 -3.186,10.817 -2.647,2.969 -5.935,4.425 -9.856,4.358 l -16.297,-0.278 -4.404,-35.75 C -47.564,-2.743 -46.852,-21.35 -46.852,-21.35 h 13.048 l -9.455,-76.766 c -1.714,-13.922 3.179,-21.234 14.691,-21.943 11.505,-0.711 22.283,-0.674 32.318,0.098 l 2.908,23.601 -9.51,-0.162 c -6.04,-0.103 -8.742,2.414 -8.105,7.563 l 8.274,67.171 3.17,0.054 c 4.224,0.072 8.025,1.567 11.399,4.499 3.367,2.921 5.337,6.658 5.898,11.197 l 0.782,6.355 z" /></g></g></g></g></svg>